<?xml version="1.0" ?>
<!DOCTYPE svg  PUBLIC '-//W3C//DTD SVG 1.1//EN'  'http://www.w3.org/Graphics/SVG/1.1/DTD/svg11.dtd'>
<!-- Uploaded to: SVG Repo, www.svgrepo.com, Generator: SVG Repo Mixer Tools -->
<svg fill="#000000" width="800px" height="800px" viewBox="0 0 846.66 846.66" style="shape-rendering:geometricPrecision; text-rendering:geometricPrecision; image-rendering:optimizeQuality; fill-rule:evenodd; clip-rule:evenodd" version="1.1" xml:space="preserve" xmlns="http://www.w3.org/2000/svg" xmlns:xlink="http://www.w3.org/1999/xlink">
<defs>
<style type="text/css">
   <![CDATA[
    .fil0 {fill:black;fill-rule:nonzero}
   ]]>
  </style>
</defs>
<g id="Layer_x0020_1">
<path class="fil0" d="M713.93 518.6l-127.07 0.5 13.08 80.45 101.54 -0.4 12.45 -80.55zm-286.73 -509.63c74.64,0 135.16,60.51 135.16,135.16 0,31.76 -10.96,60.97 -29.31,84.04 58.21,36.51 93.56,100.09 93.56,168.94 0,11.44 -9.28,20.71 -20.72,20.71l-357.38 0c-11.44,0 -20.72,-9.27 -20.72,-20.71 0,-68.86 35.35,-132.43 93.56,-168.94 -18.34,-23.07 -29.31,-52.28 -29.31,-84.04 0,-74.65 60.52,-135.16 135.16,-135.16zm73.83 248.38c-21.22,13.87 -46.59,21.93 -73.83,21.93 -27.24,0 -52.61,-8.06 -73.83,-21.93 -45.18,23.92 -76.18,68.37 -82.81,119.05l313.28 0c-6.62,-50.68 -37.63,-95.13 -82.81,-119.05zm-73.83 -206.95c-51.77,0 -93.73,41.96 -93.73,93.73 0,51.76 41.96,93.73 93.73,93.73 51.77,0 93.73,-41.97 93.73,-93.73 0,-51.77 -41.96,-93.73 -93.73,-93.73zm-317.53 429.31l174.34 -0.69c12.85,-0.05 22.54,11.49 20.43,24.06l-17.92 115.97c22.91,54.99 80.65,81.57 137.61,81.35l0.08 0c56.73,-0.22 114.44,-27.42 136.89,-82.28l-18.88 -116.24c-2.01,-12.47 7.56,-23.9 20.29,-23.95l175.18 -0.69c12.73,-0.17 22.68,11.09 20.71,23.79l-18.56 120.07c-0.06,0.89 -0.18,1.77 -0.36,2.66 -29.17,146.28 -178.74,213.23 -315.3,213.92 -137.01,0.7 -285.57,-65.14 -315.94,-211.44 -0.08,-0.38 -0.15,-0.76 -0.21,-1.14l-19.74 -121.44c-2.12,-13.03 8.33,-24.56 21.38,-23.95zm486.52 161.12c-30.93,66.62 -100.9,100.54 -171.9,100.83 -70.87,0.28 -141.34,-33.27 -172.74,-99.47l-96.05 0.37c37.99,109.47 161.35,154.4 268.52,153.86 106.67,-0.54 230.92,-46.83 268.19,-155.96l-96.02 0.37zm-336.18 -120.45l-127.06 0.5 13.08 80.46 101.53 -0.4 12.45 -80.56z"/>
</g>
</svg>